<?xml version="1.0" encoding="utf-8"?>
<!-- Generator: Adobe Illustrator 24.0.1, SVG Export Plug-In . SVG Version: 6.00 Build 0)  -->
<svg version="1.1" id="Layer_1" xmlns="http://www.w3.org/2000/svg" xmlns:xlink="http://www.w3.org/1999/xlink" x="0px" y="0px"
	 viewBox="0 0 106.18 124.04" style="enable-background:new 0 0 106.18 124.04;" xml:space="preserve">
<style type="text/css">
	.st0{fill-rule:evenodd;clip-rule:evenodd;fill:#9E9FA2;}
	.st1{fill:#87D4EA;}
	.st2{fill-rule:evenodd;clip-rule:evenodd;fill:#6E6D71;}
	.st3{fill-rule:evenodd;clip-rule:evenodd;fill:#FFFFFF;}
</style>
<polygon class="st0" points="68.72,59.51 77.13,63.73 68.72,67.96 60.3,63.73 "/>
<path class="st1" d="M81.92,9.46c-1.38,0-2.51,1.16-2.51,2.58c0,0.75,0.3,1.38,0.75,1.87c-2.77,2.81-8,7.71-10.1,6.77
	c-1.87-0.82-2.28-4.53-2.36-7.14h0.04c1.38,0,2.51-1.16,2.51-2.62c0-1.42-1.12-2.58-2.51-2.58s-2.51,1.16-2.51,2.58
	c0,1.16,0.71,2.13,1.68,2.47c-1.12,2.58-3.52,6.02-7.82,4.11c-3.33-1.5-4.79-7.82-5.42-12.3c1.16-0.26,2.02-1.31,2.02-2.58
	C55.7,1.2,54.58,0,53.19,0c-1.38,0-2.51,1.2-2.51,2.62c0,1.27,0.86,2.32,2.02,2.58c-0.64,4.49-2.13,10.81-5.46,12.3
	c-4.3,1.91-6.66-1.53-7.78-4.11c0.97-0.34,1.68-1.31,1.68-2.47c0-1.42-1.12-2.58-2.51-2.58c-1.42,0-2.54,1.16-2.54,2.58
	c0,1.46,1.12,2.62,2.54,2.62c0,0,0,0,0.04,0c-0.08,2.62-0.49,6.32-2.36,7.14c-2.13,0.93-7.37-3.96-10.1-6.77
	c0.45-0.49,0.75-1.12,0.75-1.87c0-1.42-1.12-2.58-2.51-2.58c-1.38,0-2.54,1.16-2.54,2.58c0,1.46,1.16,2.62,2.54,2.62
	c0.37,0,0.75-0.07,1.08-0.26c2.24,4.97,7.22,16.57,6.77,21.28c4.26-2.77,12.08-4.6,21.02-4.6c8.71,0,16.38,1.76,20.72,4.41
	c-0.34-4.83,4.53-16.16,6.77-21.09c0.34,0.19,0.71,0.26,1.08,0.26c1.38,0,2.51-1.16,2.51-2.62C84.42,10.62,83.3,9.46,81.92,9.46
	L81.92,9.46z"/>
<path class="st2" d="M53.16,116.39c4.38,0.04,8.71-0.41,12.9-1.68c7.11-2.13,12.57-6.28,15.63-13.24c1.87-4.3,2.39-8.79,2.36-13.39
	c0-3.03-0.6-5.98-1.01-8.98c-0.11-0.86-0.41-0.97-1.23-0.75c-3.37,0.9-6.73,1.53-10.25,1.42c-23.9-0.07-19.45-22.89-19.6-38.49
	c0.07-0.67-0.07-0.86-0.79-0.79c-1.98,0.15-4,0.26-5.95,0.64c-4.34,0.79-8.27,2.43-11.37,5.72c-2.24,2.39-3.7,5.31-4.82,8.42
	c-6.02,16.68-13.46,49.26,7.78,58.27C42.05,115.76,47.55,116.39,53.16,116.39L53.16,116.39z M104.92,55.95
	c-0.15,0.82-0.22,1.68-0.45,2.51c-0.75,2.92-2.62,5.12-4.82,7.07c-1.01,0.9-2.13,1.68-3.22,2.51c-2.17,1.65-4.79,0.75-6.13-1.35
	c-0.67-1.05-0.93-2.24-1.23-3.44c-1.53-5.35-3.18-10.66-5.61-15.71c-1.57-3.14-3.29-6.13-6.25-8.27c-0.79-0.6-2.54-2.88-0.86-3.48
	c0.34-0.11,0.75-0.22,1.12-0.26c6.02-0.3,11.93,0.19,17.2,3.48c5.5,3.4,8.64,8.49,10.02,14.7c0.15,0.52,0.04,1.05,0.22,1.53
	C104.92,55.5,104.92,55.73,104.92,55.95L104.92,55.95z M1.47,55.58c0.04-3.74,1.57-6.99,3.52-10.06c3.7-5.72,9.09-8.75,15.75-9.69
	c2.84-0.41,5.72-0.52,8.6-0.19c2.54,0.34,0.75,2.88-0.34,3.67c-2.77,2.06-4.49,4.9-5.98,7.93c-2.77,5.54-4.49,11.41-6.13,17.35
	c-0.37,1.35-0.97,2.51-2.06,3.4c-1.23,1.01-3.03,1.27-4.3,0.45c-2.69-1.76-5.24-3.7-7.07-6.43C2.14,60.1,1.39,57.97,1.47,55.58
	L1.47,55.58z M40.03,58.46l8.45,4.23l-8.45,4.19l-8.42-4.19L40.03,58.46z M63.78,35.31c6.02,1.35,11.11,4.23,14.81,9.28
	c2.54,3.44,4.11,7.41,5.35,11.48c2.13,7.18,4.79,17.95,5.95,25.47c3.37,21.88-9.24,38.49-31.04,40.8
	c-6.06,0.67-12.79,0.26-18.63-1.27C13.4,114.08,14.93,91,19.31,68.67c1.08-5.42,2.17-10.85,4.08-16.08
	c3.89-10.55,11.44-16.46,22.55-17.84C51.96,34.04,57.83,34,63.78,35.31L63.78,35.31z"/>
<polygon class="st3" points="67.67,58.46 76.08,62.69 67.67,66.87 59.25,62.69 "/>
<path class="st2" d="M50.24,103.75c-4.6-2.21-6.73-6.02-7.14-10.92c-0.19-2.17,0.97-3.22,3.14-3.22c3.14,0.04,6.32,0.11,9.46,0.11
	c1.57,0,3.11-0.07,4.68-0.07c1.79,0,3.25,1.42,2.99,3.18c-0.67,4.71-2.54,8.71-7.11,10.88C54.28,104.69,52.22,104.69,50.24,103.75
	L50.24,103.75z"/>
</svg>
